<svg xmlns="http://www.w3.org/2000/svg" viewBox="0 0 500 130">
  <path fill="currentColor" d="M20.9 80a28.4 28.4 0 0 0 .4 4.8 8.7 8.7 0 0 0 1.3 3.5 6.2 6.2 0 0 0 2.6 2.2 10 10 0 0 0 4.2.8 11.1 11.1 0 0 0 7-2 8 8 0 0 0 1-10.6 15 15 0 0 0-4.1-3.4 38.4 38.4 0 0 0-6-2.7L20.6 70l-6.7-3a26.5 26.5 0 0 1-6-4.2A18.8 18.8 0 0 1 3.8 57a19 19 0 0 1-1.6-8.1A24.7 24.7 0 0 1 4.1 39a19 19 0 0 1 5.4-7.3 25.1 25.1 0 0 1 8.8-4.6 41.5 41.5 0 0 1 12-1.5 43.7 43.7 0 0 1 7.3.6 45 45 0 0 1 7.1 1.8 44 44 0 0 1 6.6 2.8 33.5 33.5 0 0 1 5.5 3.7v17.3H38.6a28.1 28.1 0 0 0-.4-4.8 9.3 9.3 0 0 0-1.3-3.5 6 6 0 0 0-2.6-2.2 10.3 10.3 0 0 0-4.2-.7 9.4 9.4 0 0 0-3.4.6 10 10 0 0 0-3 1.7 8.2 8.2 0 0 0-2 2.5 6.5 6.5 0 0 0-.7 3 5.5 5.5 0 0 0 1.6 4 15.7 15.7 0 0 0 4.2 2.9 48.7 48.7 0 0 0 6 2.3l6.8 2.4a59.6 59.6 0 0 1 6.8 3.1 24.6 24.6 0 0 1 6 4.4 20.3 20.3 0 0 1 4.2 6.4 22 22 0 0 1 1.6 8.8 27 27 0 0 1-2 10.4 21.2 21.2 0 0 1-5.5 8 25.1 25.1 0 0 1-8.9 5 38.5 38.5 0 0 1-12 1.6 45.5 45.5 0 0 1-14.3-2.2 54.8 54.8 0 0 1-13.6-6.8V80zM111.2 69.3H95v-2.1a11.9 11.9 0 0 0-1.8-7 6.3 6.3 0 0 0-5.5-2.6 6 6 0 0 0-5.4 2.6 12.5 12.5 0 0 0-1.7 7v19.6q0 4.5 1.8 6.3a7 7 0 0 0 5.3 1.9 7.4 7.4 0 0 0 5.4-1.9q1.9-1.8 1.9-6.3v-4.3h16.2v18.3a43.5 43.5 0 0 1-10.4 5 41.4 41.4 0 0 1-13.3 2 43.5 43.5 0 0 1-9.3-1 23.3 23.3 0 0 1-7.7-3.1 15.5 15.5 0 0 1-7.3-13.9V65a17.6 17.6 0 0 1 1.6-7.6 15.4 15.4 0 0 1 4.7-5.7A22.2 22.2 0 0 1 77 48a36.8 36.8 0 0 1 10.1-1.3 46.5 46.5 0 0 1 12.5 1.7 52.2 52.2 0 0 1 11.6 4.8zM117.8 56a15.3 15.3 0 0 1 5-5.4 23 23 0 0 1 7.7-3.1 43.7 43.7 0 0 1 9.5-1 47.8 47.8 0 0 1 9.4.9 26 26 0 0 1 8 2.9 16 16 0 0 1 5.4 5A13.4 13.4 0 0 1 165 63v27a16 16 0 0 1-2 8.1 16.1 16.1 0 0 1-5.4 5.5 24.3 24.3 0 0 1-7.9 3.2 46.8 46.8 0 0 1-19 0 23.6 23.6 0 0 1-7.7-3 15.1 15.1 0 0 1-5.1-5.3 15.3 15.3 0 0 1-1.8-7.8V64.2a16.7 16.7 0 0 1 1.8-8.1zm27.8 4.2a6.6 6.6 0 0 0-5.6-2.6 5.7 5.7 0 0 0-5.2 2.6 12.7 12.7 0 0 0-1.7 7v19.6q0 4.5 1.7 6.4a6.5 6.5 0 0 0 5.2 2 7.7 7.7 0 0 0 5.5-2q2-2 2-6.4V67.2a11 11 0 0 0-2-7zM199.3 60h-7v27.6a8.5 8.5 0 0 0 .5 3.1 4.4 4.4 0 0 0 1.5 2 6.3 6.3 0 0 0 2.2 1 13.4 13.4 0 0 0 3 .3V106l-4 1.2a13 13 0 0 1-4.2.7 18.1 18.1 0 0 1-7.6-1.4 13 13 0 0 1-5-4 17 17 0 0 1-2.9-6.3 35.2 35.2 0 0 1-.9-8.2V60h-5V47.8h5v-11l17.4-4.8v15.8h7zM233.7 60h-7v27.6a8.5 8.5 0 0 0 .5 3.1 4.4 4.4 0 0 0 1.5 2 6.3 6.3 0 0 0 2.2 1 13.4 13.4 0 0 0 3 .3V106l-4 1.2a13 13 0 0 1-4.2.7 18.1 18.1 0 0 1-7.6-1.4 13 13 0 0 1-5-4 17 17 0 0 1-2.9-6.4 35.2 35.2 0 0 1-.9-8.2V60.1h-5V47.8h5v-11l17.4-4.8v15.8h7zM271.3 94a4.2 4.2 0 0 0 2.2-.5 3.8 3.8 0 0 0 1.4-1.5 6.3 6.3 0 0 0 .7-2.1 18 18 0 0 0 .2-2.8V40.6a7 7 0 0 0-3.5.8 6.7 6.7 0 0 0-2.3 2.2 10 10 0 0 0-1.3 3.4 21 21 0 0 0-.4 4.3v7.1h-15.4V27.3h64.5v31.1H302v-7a21.7 21.7 0 0 0-.4-4.4 10.6 10.6 0 0 0-1.3-3.4 6.4 6.4 0 0 0-2.3-2.2 7.2 7.2 0 0 0-3.5-.8v46.5a11.4 11.4 0 0 0 1 5A3.6 3.6 0 0 0 299 94v12.2h-27.7zM322.4 94a3.3 3.3 0 0 0 3.1-1.5q.9-1.5.9-5.5V67a15 15 0 0 0-.9-5.8 3.2 3.2 0 0 0-3.2-2V47.9h21.3V87a28.6 28.6 0 0 0 .2 3.4 6.9 6.9 0 0 0 .5 2.1 2.4 2.4 0 0 0 1 1.2 3.9 3.9 0 0 0 1.8.3V106h-24.8zm21.1-59a8.8 8.8 0 0 1-.8 3.7 9.6 9.6 0 0 1-2.1 3 10.3 10.3 0 0 1-3.2 2 9.7 9.7 0 0 1-3.7.8 9.3 9.3 0 0 1-3.7-.8 9.7 9.7 0 0 1-5.2-5 8.8 8.8 0 0 1-.8-3.7 8.1 8.1 0 0 1 .8-3.4 10 10 0 0 1 2-3 10.7 10.7 0 0 1 3.1-2 9.3 9.3 0 0 1 7.5 0 11.6 11.6 0 0 1 3.2 2 10 10 0 0 1 2.1 3 7.9 7.9 0 0 1 .8 3.4zM406.7 47.8v11.4a3.3 3.3 0 0 0-1.8.5 3.6 3.6 0 0 0-1.2 1.3 6.1 6.1 0 0 0-.6 2 13.7 13.7 0 0 0-.2 2.3v44a19.2 19.2 0 0 1-2 9.1 15.4 15.4 0 0 1-5.2 5.8 21.5 21.5 0 0 1-7.7 3 49.7 49.7 0 0 1-9.4.8 45.2 45.2 0 0 1-11.6-1.5 65.7 65.7 0 0 1-12.3-4.8v-13.3h17q.2 7.8 6.9 7.8 7 0 7-8.4v-6l-4.3 1.9a37.4 37.4 0 0 1-3.8 1.3 31.2 31.2 0 0 1-3.6.7 26.1 26.1 0 0 1-3.6.3 21.6 21.6 0 0 1-7.4-1.3 17 17 0 0 1-5.8-3.5 15.5 15.5 0 0 1-3.8-5.4 17.8 17.8 0 0 1-1.3-7V63a16.3 16.3 0 0 1 1.6-7.2 15.1 15.1 0 0 1 4-5.2 17.6 17.6 0 0 1 6-3 24.9 24.9 0 0 1 7.2-1 19.8 19.8 0 0 1 3.7.2 17.8 17.8 0 0 1 3.4 1 26.7 26.7 0 0 1 3.5 1.8c1.2.7 2.7 1.5 4.3 2.6v-4.4zm-25.9 12.3a9.1 9.1 0 0 0-3.7-.9 11.4 11.4 0 0 0-3.1.4 6 6 0 0 0-2.5 1.4 6.4 6.4 0 0 0-1.6 2.5 11.1 11.1 0 0 0-.6 3.9v19a7.1 7.1 0 0 0 2.2 5.6 8 8 0 0 0 5.7 2 9.7 9.7 0 0 0 3.8-.9 46.4 46.4 0 0 0 4.7-2.4V62.8a46.5 46.5 0 0 0-4.9-2.7zM429 79.3v7.3q0 4.4 1.8 6.4a7 7 0 0 0 5.4 2 7.4 7.4 0 0 0 5.4-1.8q1.8-1.8 1.8-6.4h17.5v13.8a71.7 71.7 0 0 1-12.2 5.2 41 41 0 0 1-12.5 2 45.3 45.3 0 0 1-10.3-1.1 20.1 20.1 0 0 1-7.7-3.6 16 16 0 0 1-4.8-6.4 24.6 24.6 0 0 1-1.7-9.7V67l.1-4a18.2 18.2 0 0 1 .6-3.4 12.2 12.2 0 0 1 1.1-2.7 15.4 15.4 0 0 1 1.9-2.5h-.2a20 20 0 0 1 8.5-5.5 36 36 0 0 1 12.6-2 37 37 0 0 1 6.6.5 35.4 35.4 0 0 1 5.9 1.6 26.7 26.7 0 0 1 5 2.4 20.4 20.4 0 0 1 3.8 3h-.1a11.4 11.4 0 0 1 2.6 4.8 20.4 20.4 0 0 1 .6 3.4c.2 1.3.2 2.8.2 4.5v12.2zm14.1-15.5a9.8 9.8 0 0 0-1.1-3.6 4.7 4.7 0 0 0-2.2-2 8.8 8.8 0 0 0-3.6-.6c-2.6 0-4.5.9-5.6 2.7S429 65 429 69h14.4a39.7 39.7 0 0 0-.3-5.3zM485.4 47.8l.4 4.6q3.6-5.1 8.6-5.1a12.3 12.3 0 0 1 3.5.5V65l-1.4-.4a5.2 5.2 0 0 0-1.5-.1 8.6 8.6 0 0 0-6.3 2.3q-2.4 2.3-2.4 7.6V87l.1 3.4a5.8 5.8 0 0 0 .5 2.1 2.8 2.8 0 0 0 1.1 1.2 8.8 8.8 0 0 0 1.9.7v11.7H465V94.5a10 10 0 0 0 2-.9 3.2 3.2 0 0 0 1.2-1.3 6.1 6.1 0 0 0 .7-2 23.8 23.8 0 0 0 .2-3.3V67a14.7 14.7 0 0 0-.9-6 3.2 3.2 0 0 0-3.2-1.8V47.8z"/>
</svg>
