<?xml version="1.0" standalone="no"?>
<!DOCTYPE svg PUBLIC "-//W3C//DTD SVG 20010904//EN"
 "http://www.w3.org/TR/2001/REC-SVG-20010904/DTD/svg10.dtd">
<svg version="1.0" xmlns="http://www.w3.org/2000/svg"
 width="506.000000pt" height="506.000000pt" viewBox="0 0 506.000000 506.000000"
 preserveAspectRatio="xMidYMid meet">
<metadata>
Created by potrace 1.11, written by Peter Selinger 2001-2013
</metadata>
<g transform="translate(0.000000,506.000000) scale(0.100000,-0.100000)"
fill="#000000" stroke="none">
<path d="M1703 4029 c-33 -12 -39 -32 -58 -189 -17 -137 -20 -148 -56 -203
-52 -80 -80 -159 -86 -247 -10 -146 42 -284 145 -382 98 -94 207 -138 343
-138 135 0 248 47 344 144 184 184 192 472 20 664 -83 92 -174 142 -296 161
-54 9 -74 20 -182 99 -136 99 -143 103 -174 91z m442 -328 c74 -34 124 -76
163 -139 122 -192 51 -448 -154 -548 -54 -26 -68 -29 -164 -29 -93 0 -112 3
-162 27 -74 34 -146 107 -184 183 -26 54 -29 70 -29 160 0 93 2 105 33 167 92
187 311 266 497 179z"/>
<path d="M3288 3963 c-18 -15 -73 -64 -123 -109 -73 -66 -98 -83 -132 -89 -58
-9 -169 -65 -222 -111 -173 -150 -213 -432 -90 -625 89 -140 251 -229 413
-229 86 1 141 13 211 46 152 71 256 218 280 395 14 109 -33 259 -114 358 -45
56 -49 67 -92 255 -31 138 -63 164 -131 109z m18 -338 c282 -139 279 -538 -4
-677 -62 -31 -74 -33 -167 -33 -87 0 -107 3 -157 27 -76 35 -138 95 -179 170
-33 61 -34 67 -34 173 0 100 3 115 28 167 95 194 319 269 513 173z"/>
<path d="M661 3324 c-19 -25 -20 -35 -14 -179 6 -150 6 -152 -21 -206 -73
-151 -67 -329 18 -473 33 -57 132 -149 194 -180 329 -167 712 66 712 434 0
136 -47 249 -144 346 -95 94 -218 144 -357 144 -56 0 -72 6 -193 70 -73 39
-142 70 -154 70 -11 0 -30 -12 -41 -26z m518 -243 c80 -25 156 -82 201 -153
48 -73 64 -139 58 -238 -8 -137 -87 -254 -213 -315 -54 -26 -70 -29 -160 -30
-88 0 -107 3 -156 26 -156 73 -247 237 -222 400 14 90 46 152 108 215 105 106
242 139 384 95z"/>
<path d="M4285 3141 l-130 -48 -106 5 c-128 6 -210 -15 -305 -76 -155 -101
-243 -295 -214 -478 33 -212 202 -381 413 -414 217 -34 446 99 528 308 31 77
33 249 5 334 -18 57 -18 59 3 191 25 160 26 191 5 211 -24 24 -58 19 -199 -33z
m-151 -168 c93 -28 171 -97 224 -196 25 -48 27 -61 27 -162 0 -96 -3 -116 -25
-160 -37 -76 -133 -167 -205 -195 -77 -29 -187 -32 -262 -6 -177 60 -289 248
-254 428 46 232 266 362 495 291z"/>
<path d="M2360 2684 c-138 -29 -248 -80 -355 -163 -47 -37 -74 -50 -125 -61
-104 -22 -229 -90 -308 -168 -81 -80 -131 -159 -168 -267 -25 -71 -28 -94 -28
-205 0 -108 4 -136 27 -206 47 -140 137 -259 260 -341 73 -48 211 -103 262
-103 20 0 50 -15 90 -45 231 -173 558 -221 822 -119 50 20 97 29 178 34 61 5
135 16 165 25 204 62 368 225 436 431 25 77 29 104 29 199 0 124 -22 212 -78
320 -38 72 -172 210 -238 244 -29 16 -56 40 -74 69 -75 118 -247 255 -393 311
-156 60 -352 78 -502 45z m415 -128 c153 -52 296 -159 391 -292 31 -43 61 -72
97 -92 161 -91 262 -257 274 -447 12 -186 -76 -367 -228 -475 -104 -72 -162
-92 -294 -97 -90 -4 -122 -10 -180 -33 -38 -15 -95 -34 -125 -41 -79 -20 -279
-18 -360 4 -85 22 -234 96 -288 143 -36 31 -58 40 -132 55 -169 33 -308 134
-383 277 -179 341 23 742 406 807 25 4 60 24 100 56 78 63 203 126 299 150
113 29 315 22 423 -15z"/>
<path d="M2000 1511 c-20 -39 -11 -60 48 -106 73 -59 217 -129 307 -151 97
-24 277 -24 375 -1 41 10 104 32 140 50 54 27 66 37 68 60 4 34 -13 57 -42 57
-11 0 -55 -13 -96 -29 -232 -89 -478 -55 -675 94 -65 49 -107 58 -125 26z"/>
</g>
</svg>
