<svg id="レイヤー_1" data-name="レイヤー 1" xmlns="http://www.w3.org/2000/svg" viewBox="0 0 500 130"><title>アートボード 1</title><path d="M20.9,80.05a28.43,28.43,0,0,0,.36,4.75,8.65,8.65,0,0,0,1.32,3.55,6.18,6.18,0,0,0,2.61,2.2,9.93,9.93,0,0,0,4.23.77,11.11,11.11,0,0,0,6.94-2,7.94,7.94,0,0,0,1.07-10.65,15,15,0,0,0-4.18-3.38,38.37,38.37,0,0,0-5.92-2.69Q24,71.36,20.6,70c-2.3-.92-4.54-1.94-6.74-3.08a26.54,26.54,0,0,1-5.92-4.15,18.81,18.81,0,0,1-4.18-5.81A19,19,0,0,1,2.2,48.86,24.73,24.73,0,0,1,4.07,39a19.09,19.09,0,0,1,5.47-7.32,25.11,25.11,0,0,1,8.8-4.54,41.52,41.52,0,0,1,11.91-1.56,43.66,43.66,0,0,1,7.37.63A45,45,0,0,1,44.74,28a44,44,0,0,1,6.52,2.84,33.51,33.51,0,0,1,5.56,3.68V51.77H38.56A28.1,28.1,0,0,0,38.2,47a9.35,9.35,0,0,0-1.29-3.52,5.94,5.94,0,0,0-2.59-2.17,10.3,10.3,0,0,0-4.24-.74,9.4,9.4,0,0,0-3.4.63,9.92,9.92,0,0,0-2.92,1.7,8.22,8.22,0,0,0-2,2.51,6.51,6.51,0,0,0-.74,3,5.46,5.46,0,0,0,1.59,4,15.73,15.73,0,0,0,4.21,2.86,48.67,48.67,0,0,0,5.94,2.36c2.22.74,4.5,1.54,6.82,2.42a59.56,59.56,0,0,1,6.82,3.08,24.62,24.62,0,0,1,6,4.4,20.34,20.34,0,0,1,4.2,6.33,22,22,0,0,1,1.6,8.8,27,27,0,0,1-1.93,10.48,21.17,21.17,0,0,1-5.55,7.87,25.13,25.13,0,0,1-8.91,5,38.55,38.55,0,0,1-12,1.73,45.5,45.5,0,0,1-14.31-2.28A54.79,54.79,0,0,1,1.92,98.75V80.05Z"/><path d="M111.2,69.32H95V67.17a11.86,11.86,0,0,0-1.84-6.93,6.25,6.25,0,0,0-5.48-2.64,6,6,0,0,0-5.36,2.64,12.48,12.48,0,0,0-1.73,6.93V86.81q0,4.45,1.81,6.33A7.05,7.05,0,0,0,87.65,95a7.41,7.41,0,0,0,5.48-1.87Q95,91.27,95,86.81V82.52H111.2v18.26a43.46,43.46,0,0,1-10.4,5,41.42,41.42,0,0,1-13.26,2,43.47,43.47,0,0,1-9.29-1,23.27,23.27,0,0,1-7.73-3.11,15.54,15.54,0,0,1-7.29-13.86V65a17.59,17.59,0,0,1,1.6-7.62,15.44,15.44,0,0,1,4.64-5.72A22.16,22.16,0,0,1,77,48.09,36.83,36.83,0,0,1,87.1,46.82a46.54,46.54,0,0,1,12.46,1.65,52.19,52.19,0,0,1,11.64,4.84Z"/><path d="M117.79,56.06a15.34,15.34,0,0,1,5.06-5.47,23,23,0,0,1,7.62-3.11,43.67,43.67,0,0,1,9.57-1,47.77,47.77,0,0,1,9.36.91,26,26,0,0,1,7.94,2.89,16.08,16.08,0,0,1,5.51,5.09,13.39,13.39,0,0,1,2.06,7.56v26.9a15.92,15.92,0,0,1-2,8.17,16.1,16.1,0,0,1-5.37,5.52,24.28,24.28,0,0,1-7.89,3.14,46.77,46.77,0,0,1-19,0,23.57,23.57,0,0,1-7.7-3,15.12,15.12,0,0,1-5.15-5.28A15.29,15.29,0,0,1,116,90.61V64.15A16.7,16.7,0,0,1,117.79,56.06Zm27.76,4.18A6.59,6.59,0,0,0,140,57.6a5.74,5.74,0,0,0-5.17,2.64,12.65,12.65,0,0,0-1.7,6.93V86.81q0,4.45,1.7,6.38A6.53,6.53,0,0,0,140,95.12a7.66,7.66,0,0,0,5.51-1.93q2-1.92,2-6.38V67.17A11.08,11.08,0,0,0,145.55,60.24Z"/><path d="M199.3,60.08h-7v27.5a8.54,8.54,0,0,0,.5,3.16,4.36,4.36,0,0,0,1.46,2,6.26,6.26,0,0,0,2.28,1,13.44,13.44,0,0,0,3,.3v11.82c-1.39.41-2.72.83-4,1.27a12.91,12.91,0,0,1-4.26.66,18.1,18.1,0,0,1-7.57-1.43,12.93,12.93,0,0,1-5.06-4,17.09,17.09,0,0,1-2.83-6.3,35.19,35.19,0,0,1-.88-8.2V60.08h-5.09V47.81h5.09V36.87L192.31,32V47.81h7Z"/><path d="M233.69,60.08h-7v27.5a8.54,8.54,0,0,0,.5,3.16,4.36,4.36,0,0,0,1.46,2,6.26,6.26,0,0,0,2.28,1,13.44,13.44,0,0,0,3,.3v11.82c-1.4.41-2.72.83-4,1.27a12.91,12.91,0,0,1-4.26.66,18.13,18.13,0,0,1-7.57-1.43,12.93,12.93,0,0,1-5.06-4A17.09,17.09,0,0,1,210.2,96a35.19,35.19,0,0,1-.88-8.2V60.08h-5.09V47.81h5.09V36.87L226.7,32V47.81h7Z"/><path d="M271.29,94a4.22,4.22,0,0,0,2.2-.53,3.8,3.8,0,0,0,1.41-1.43,6.3,6.3,0,0,0,.71-2.17,18.09,18.09,0,0,0,.19-2.75V40.61a7,7,0,0,0-3.46.79A6.66,6.66,0,0,0,270,43.6,10,10,0,0,0,268.68,47a21,21,0,0,0-.41,4.34v7.1H252.92V27.3h64.47V58.43H302v-7.1a21.69,21.69,0,0,0-.41-4.34,10.6,10.6,0,0,0-1.29-3.39A6.42,6.42,0,0,0,298,41.4a7.2,7.2,0,0,0-3.49-.79V87.14a11.42,11.42,0,0,0,.93,4.92A3.58,3.58,0,0,0,299,94v12.15H271.29Z"/><path d="M322.43,94a3.28,3.28,0,0,0,3.1-1.51q.86-1.52.86-5.48V67a15,15,0,0,0-.86-5.85,3.21,3.21,0,0,0-3.21-1.9V47.81h21.29V87a28.61,28.61,0,0,0,.16,3.38,6.89,6.89,0,0,0,.55,2.15,2.36,2.36,0,0,0,1.07,1.13,3.87,3.87,0,0,0,1.68.33v12.15H322.32ZM343.5,35a8.8,8.8,0,0,1-.8,3.71,9.64,9.64,0,0,1-2.15,3,10.28,10.28,0,0,1-3.13,2,9.65,9.65,0,0,1-3.77.75,9.28,9.28,0,0,1-3.68-.75,9.73,9.73,0,0,1-5.2-5A8.8,8.8,0,0,1,324,35a8.12,8.12,0,0,1,.77-3.39,9.93,9.93,0,0,1,2.09-3,10.67,10.67,0,0,1,3.08-2.09,9.25,9.25,0,0,1,7.48,0,11.55,11.55,0,0,1,3.14,2.09,10,10,0,0,1,2.17,3A7.86,7.86,0,0,1,343.5,35Z"/><path d="M406.73,47.81V59.2a3.26,3.26,0,0,0-1.84.49A3.59,3.59,0,0,0,403.71,61a6.1,6.1,0,0,0-.63,2,13.65,13.65,0,0,0-.2,2.33v44a19.2,19.2,0,0,1-1.92,9.1,15.44,15.44,0,0,1-5.23,5.75,21.46,21.46,0,0,1-7.73,3,49.66,49.66,0,0,1-9.43.85A45.23,45.23,0,0,1,367,126.5a65.71,65.71,0,0,1-12.29-4.76V108.43h17q.18,7.75,6.88,7.76,7.1,0,7.1-8.42v-6q-2.31,1.11-4.35,1.9a37.44,37.44,0,0,1-3.88,1.29,31.23,31.23,0,0,1-3.6.75,26.13,26.13,0,0,1-3.52.24,21.64,21.64,0,0,1-7.45-1.23,17,17,0,0,1-5.81-3.5,15.5,15.5,0,0,1-3.74-5.39,17.83,17.83,0,0,1-1.32-7V63.05a16.31,16.31,0,0,1,1.54-7.29,15.11,15.11,0,0,1,4.13-5.17,17.64,17.64,0,0,1,6-3.08,24.87,24.87,0,0,1,7.15-1,19.78,19.78,0,0,1,3.69.31,17.82,17.82,0,0,1,3.33,1,26.67,26.67,0,0,1,3.55,1.73c1.24.71,2.67,1.59,4.29,2.61V47.81Zm-25.9,12.32a9.13,9.13,0,0,0-3.75-.93,11.45,11.45,0,0,0-3.13.41A6,6,0,0,0,371.5,61a6.38,6.38,0,0,0-1.59,2.53,11.11,11.11,0,0,0-.58,3.87V86.48a7.11,7.11,0,0,0,2.2,5.5,8,8,0,0,0,5.67,2,9.73,9.73,0,0,0,3.79-.88,46.43,46.43,0,0,0,4.68-2.42V62.83A46.51,46.51,0,0,0,380.83,60.13Z"/><path d="M429,79.28v7.31Q429,91,430.78,93a6.94,6.94,0,0,0,5.42,2,7.41,7.41,0,0,0,5.36-1.79q1.85-1.78,1.84-6.41h17.5v13.75a71.67,71.67,0,0,1-12.24,5.26,40.94,40.94,0,0,1-12.46,2,45.27,45.27,0,0,1-10.26-1.16,20.11,20.11,0,0,1-7.7-3.54,15.94,15.94,0,0,1-4.87-6.41,24.58,24.58,0,0,1-1.71-9.74V67.06c0-1.54.06-2.91.17-4.12a18.22,18.22,0,0,1,.58-3.3,12.2,12.2,0,0,1,1.12-2.75,15.36,15.36,0,0,1,1.82-2.53h-.11a20,20,0,0,1,8.42-5.5,35.94,35.94,0,0,1,12.65-2,37,37,0,0,1,6.57.58,35.44,35.44,0,0,1,5.91,1.6,26.73,26.73,0,0,1,5,2.39,20.45,20.45,0,0,1,3.82,3h-.11a11.37,11.37,0,0,1,2.62,4.76,20.42,20.42,0,0,1,.6,3.38c.13,1.28.2,2.8.2,4.56V79.28ZM443.1,63.79a9.78,9.78,0,0,0-1.1-3.55,4.74,4.74,0,0,0-2.2-2,8.82,8.82,0,0,0-3.6-.64c-2.64,0-4.51.89-5.59,2.67S429,65,429,69.1H443.4A39.72,39.72,0,0,0,443.1,63.79Z"/><path d="M485.38,47.81l.38,4.62q3.69-5.16,8.64-5.17a12.32,12.32,0,0,1,3.52.55V65c-.51-.11-1-.23-1.46-.36a5.24,5.24,0,0,0-1.45-.19,8.61,8.61,0,0,0-6.3,2.34q-2.4,2.34-2.4,7.56V87c0,1.43,0,2.58.11,3.44a5.8,5.8,0,0,0,.5,2.06,2.76,2.76,0,0,0,1.1,1.19,8.75,8.75,0,0,0,1.87.74v11.71H465V94.46a10.09,10.09,0,0,0,2-.86,3.24,3.24,0,0,0,1.23-1.26,6.1,6.1,0,0,0,.64-2.06A23.75,23.75,0,0,0,469.1,87V67a14.71,14.71,0,0,0-.88-5.94A3.23,3.23,0,0,0,465,59.2V47.81Z"/></svg>